<?xml version="1.0" standalone="no"?><!DOCTYPE svg PUBLIC "-//W3C//DTD SVG 1.1//EN" "http://www.w3.org/Graphics/SVG/1.1/DTD/svg11.dtd"><svg t="1748267888707" class="icon" viewBox="0 0 1024 1024" version="1.1" xmlns="http://www.w3.org/2000/svg" p-id="2321" xmlns:xlink="http://www.w3.org/1999/xlink" width="256" height="256"><path d="M290.752 563.936a170.656 170.656 0 1 1 282.624-182.048l-59.008 24.8a106.688 106.688 0 1 0-176.672 113.728l-46.944 43.52zM170.656 416a32 32 0 0 1 0 64H128a32 32 0 0 1 0-64h42.656zM265.152 251.904a31.968 31.968 0 1 1-45.248 45.248l-30.176-30.176a31.968 31.968 0 1 1 45.248-45.248l30.176 30.176zM566.848 251.904a31.968 31.968 0 1 0 45.248 45.248l30.176-30.176a31.968 31.968 0 1 0-45.248-45.248l-30.176 30.176zM448 202.656a32 32 0 0 1-64 0V160a32 32 0 0 1 64 0v42.656z" fill="#FCD118" p-id="2322"></path><path d="M586.656 352a256.064 256.064 0 0 1 247.04 188.672A170.656 170.656 0 0 1 757.344 864H330.656a170.656 170.656 0 0 1 0-341.312h14.56A256.128 256.128 0 0 1 586.656 352z m-181.088 192l-15.072 42.688h-59.84a106.624 106.624 0 1 0 0 213.312h426.656a106.656 106.656 0 0 0 47.712-202.112l-25.568-12.832-7.52-27.616A192.064 192.064 0 0 0 405.568 544z" fill="#4A90E2" p-id="2323"></path></svg>