<?xml version="1.0" standalone="no"?><!DOCTYPE svg PUBLIC "-//W3C//DTD SVG 1.1//EN" "http://www.w3.org/Graphics/SVG/1.1/DTD/svg11.dtd"><svg t="1748267874698" class="icon" viewBox="0 0 1024 1024" version="1.1" xmlns="http://www.w3.org/2000/svg" p-id="2158" xmlns:xlink="http://www.w3.org/1999/xlink" width="256" height="256"><path d="M512 240a256.096 256.096 0 0 0-242.272 173.12 170.72 170.72 0 0 0 28.928 338.88h74.816v-64H298.656a106.656 106.656 0 0 1-18.176-211.808l37.504-6.4 12.288-35.968a192.096 192.096 0 0 1 363.456 0l60.544-20.704A256.096 256.096 0 0 0 512 240z" fill="#4A90E2" p-id="2159"></path><path d="M583.264 549.312l-15.072 42.688H448a64 64 0 1 0 0 128h256a128 128 0 1 0-120.736-170.688zM704 400a192 192 0 0 1 0.096 384H448a128 128 0 1 1 0-256h74.912c26.368-74.56 97.504-128 181.088-128z" fill="#4A90E2" p-id="2160"></path></svg>