<?xml version="1.0" standalone="no"?><!DOCTYPE svg PUBLIC "-//W3C//DTD SVG 1.1//EN" "http://www.w3.org/Graphics/SVG/1.1/DTD/svg11.dtd"><svg t="1748267933460" class="icon" viewBox="0 0 1024 1024" version="1.1" xmlns="http://www.w3.org/2000/svg" p-id="2837" xmlns:xlink="http://www.w3.org/1999/xlink" width="256" height="256"><path d="M743.52 396.192l-37.504-6.4-12.288-35.968a192.096 192.096 0 0 0-363.456 0l-12.288 35.968-37.504 6.4A106.72 106.72 0 0 0 298.656 608h426.688a106.656 106.656 0 0 0 18.176-211.808zM896 501.344A170.656 170.656 0 0 1 725.344 672H298.656a170.656 170.656 0 0 1-28.928-338.88 256.096 256.096 0 0 1 484.544 0A170.72 170.72 0 0 1 896 501.344zM320.96 728.224a32 32 0 0 1 62.08 15.552l-32 128a32 32 0 0 1-62.08-15.552l32-128zM480.96 728.224a32 32 0 0 1 62.08 15.552l-32 128a32 32 0 0 1-62.08-15.552l32-128zM640.96 728.224a32 32 0 0 1 62.08 15.552l-32 128a32 32 0 0 1-62.08-15.552l32-128z" fill="#4A90E2" p-id="2838"></path></svg>