<?xml version="1.0" standalone="no"?><!DOCTYPE svg PUBLIC "-//W3C//DTD SVG 1.1//EN" "http://www.w3.org/Graphics/SVG/1.1/DTD/svg11.dtd"><svg t="1748267910933" class="icon" viewBox="0 0 1024 1024" version="1.1" xmlns="http://www.w3.org/2000/svg" p-id="2484" xmlns:xlink="http://www.w3.org/1999/xlink" width="256" height="256"><path d="M743.52 396.192l-37.504-6.4-12.288-35.968a192.096 192.096 0 0 0-363.456 0l-12.288 35.968-37.504 6.4A106.72 106.72 0 0 0 298.656 608h426.688a106.656 106.656 0 0 0 18.176-211.808zM896 501.344A170.656 170.656 0 0 1 725.344 672H298.656a170.656 170.656 0 0 1-28.928-338.88 256.096 256.096 0 0 1 484.544 0A170.72 170.72 0 0 1 896 501.344zM376 742.4a8 8 0 1 1 16 0v51.2a8 8 0 1 1-16 0v-51.2z" fill="#4A90E2" p-id="2485"></path><path d="M376 742.4a8 8 0 1 1 16 0v51.2a8 8 0 1 1-16 0v-51.2z" fill="#4A90E2" p-id="2486"></path><path d="M360.256 755.552a8 8 0 1 1 11.296-11.296l36.192 36.16a8 8 0 1 1-11.296 11.328l-36.192-36.16z" fill="#4A90E2" p-id="2487"></path><path d="M407.744 755.552a8 8 0 1 0-11.296-11.296l-36.192 36.16a8 8 0 1 0 11.296 11.328l36.192-36.16z" fill="#4A90E2" p-id="2488"></path><path d="M409.6 760a8 8 0 1 1 0 16h-51.2a8 8 0 1 1 0-16h51.2zM440 838.4a8 8 0 1 1 16 0v51.2a8 8 0 1 1-16 0v-51.2z" fill="#4A90E2" p-id="2489"></path><path d="M440 838.4a8 8 0 1 1 16 0v51.2a8 8 0 1 1-16 0v-51.2z" fill="#4A90E2" p-id="2490"></path><path d="M424.256 851.552a8 8 0 1 1 11.296-11.296l36.192 36.16a8 8 0 1 1-11.296 11.328l-36.192-36.16z" fill="#4A90E2" p-id="2491"></path><path d="M471.744 851.552a8 8 0 1 0-11.296-11.296l-36.192 36.16a8 8 0 1 0 11.296 11.328l36.192-36.16z" fill="#4A90E2" p-id="2492"></path><path d="M473.6 856a8 8 0 1 1 0 16h-51.2a8 8 0 1 1 0-16h51.2zM312 838.4a8 8 0 1 1 16 0v51.2a8 8 0 1 1-16 0v-51.2z" fill="#4A90E2" p-id="2493"></path><path d="M312 838.4a8 8 0 1 1 16 0v51.2a8 8 0 1 1-16 0v-51.2z" fill="#4A90E2" p-id="2494"></path><path d="M296.256 851.552a8 8 0 0 1 11.296-11.296l36.192 36.16a8 8 0 1 1-11.296 11.328l-36.192-36.16z" fill="#4A90E2" p-id="2495"></path><path d="M343.744 851.552a8 8 0 0 0-11.296-11.296l-36.192 36.16a8 8 0 1 0 11.296 11.328l36.192-36.16z" fill="#4A90E2" p-id="2496"></path><path d="M345.6 856a8 8 0 1 1 0 16H294.4a8 8 0 1 1 0-16h51.2zM504 742.4a8 8 0 1 1 16 0v51.2a8 8 0 1 1-16 0v-51.2z" fill="#4A90E2" p-id="2497"></path><path d="M504 742.4a8 8 0 1 1 16 0v51.2a8 8 0 1 1-16 0v-51.2z" fill="#4A90E2" p-id="2498"></path><path d="M488.256 755.552a8 8 0 1 1 11.296-11.296l36.192 36.16a8 8 0 1 1-11.296 11.328l-36.192-36.16z" fill="#4A90E2" p-id="2499"></path><path d="M535.744 755.552a8 8 0 1 0-11.296-11.296l-36.192 36.16a8 8 0 1 0 11.296 11.328l36.192-36.16z" fill="#4A90E2" p-id="2500"></path><path d="M537.6 760a8 8 0 1 1 0 16h-51.2a8 8 0 1 1 0-16h51.2zM632 742.4a8 8 0 1 1 16 0v51.2a8 8 0 1 1-16 0v-51.2z" fill="#4A90E2" p-id="2501"></path><path d="M632 742.4a8 8 0 1 1 16 0v51.2a8 8 0 1 1-16 0v-51.2z" fill="#4A90E2" p-id="2502"></path><path d="M616.256 755.552a8 8 0 1 1 11.296-11.296l36.192 36.16a8 8 0 1 1-11.296 11.328l-36.192-36.16z" fill="#4A90E2" p-id="2503"></path><path d="M663.744 755.552a8 8 0 1 0-11.296-11.296l-36.192 36.16a8 8 0 1 0 11.296 11.328l36.192-36.16z" fill="#4A90E2" p-id="2504"></path><path d="M665.6 760a8 8 0 1 1 0 16h-51.2a8 8 0 1 1 0-16h51.2zM568 838.4a8 8 0 1 1 16 0v51.2a8 8 0 1 1-16 0v-51.2z" fill="#4A90E2" p-id="2505"></path><path d="M568 838.4a8 8 0 1 1 16 0v51.2a8 8 0 1 1-16 0v-51.2z" fill="#4A90E2" p-id="2506"></path><path d="M552.256 851.552a8 8 0 1 1 11.296-11.296l36.192 36.16a8 8 0 1 1-11.296 11.328l-36.192-36.16z" fill="#4A90E2" p-id="2507"></path><path d="M599.744 851.552a8 8 0 1 0-11.296-11.296l-36.192 36.16a8 8 0 1 0 11.296 11.328l36.192-36.16z" fill="#4A90E2" p-id="2508"></path><path d="M601.6 856a8 8 0 1 1 0 16h-51.2a8 8 0 1 1 0-16h51.2zM696 838.4a8 8 0 1 1 16 0v51.2a8 8 0 1 1-16 0v-51.2z" fill="#4A90E2" p-id="2509"></path><path d="M696 838.4a8 8 0 1 1 16 0v51.2a8 8 0 1 1-16 0v-51.2z" fill="#4A90E2" p-id="2510"></path><path d="M680.256 851.552a8 8 0 1 1 11.296-11.296l36.192 36.16a8 8 0 1 1-11.296 11.328l-36.192-36.16z" fill="#4A90E2" p-id="2511"></path><path d="M727.744 851.552a8 8 0 1 0-11.296-11.296l-36.192 36.16a8 8 0 1 0 11.296 11.328l36.192-36.16z" fill="#4A90E2" p-id="2512"></path><path d="M729.6 856a8 8 0 1 1 0 16h-51.2a8 8 0 1 1 0-16h51.2z" fill="#4A90E2" p-id="2513"></path></svg>