<?xml version="1.0" standalone="no"?><!DOCTYPE svg PUBLIC "-//W3C//DTD SVG 1.1//EN" "http://www.w3.org/Graphics/SVG/1.1/DTD/svg11.dtd"><svg t="1748267845366" class="icon" viewBox="0 0 1024 1024" version="1.1" xmlns="http://www.w3.org/2000/svg" p-id="1996" xmlns:xlink="http://www.w3.org/1999/xlink" width="256" height="256"><path d="M512 704a192 192 0 1 0 0-384 192 192 0 0 0 0 384z m0 64a256 256 0 1 1 0-512 256 256 0 0 1 0 512zM480 128a32 32 0 0 1 64 0v64a32 32 0 0 1-64 0V128zM480 832a32 32 0 0 1 64 0v64a32 32 0 0 1-64 0v-64zM760.896 217.856a32 32 0 1 1 45.248 45.248l-45.248 45.248a32 32 0 0 1-45.248-45.248l45.248-45.248zM263.104 715.648a32 32 0 1 1 45.248 45.248l-45.248 45.248a32 32 0 0 1-45.248-45.248l45.248-45.248zM263.104 217.856a32 32 0 1 0-45.248 45.248l45.248 45.248a32 32 0 0 0 45.248-45.248L263.104 217.856zM760.896 715.648a32 32 0 1 0-45.248 45.248l45.248 45.248a32 32 0 0 0 45.248-45.248l-45.248-45.248zM896 480a32 32 0 0 1 0 64h-64a32 32 0 0 1 0-64h64zM192 480a32 32 0 0 1 0 64H128a32 32 0 0 1 0-64h64z" fill="#FCD118" p-id="1997"></path></svg>