<?xml version="1.0" standalone="no"?><!DOCTYPE svg PUBLIC "-//W3C//DTD SVG 1.1//EN" "http://www.w3.org/Graphics/SVG/1.1/DTD/svg11.dtd"><svg t="1748588286959" class="icon" viewBox="0 0 1024 1024" version="1.1" xmlns="http://www.w3.org/2000/svg" p-id="6421" data-spm-anchor-id="a313x.search_index.0.i9.2fa63a81avr6B1" xmlns:xlink="http://www.w3.org/1999/xlink" width="256" height="256"><path d="M612.9664 630.1696c-121.899323 0-221.077662-99.178338-221.085538-221.0816 0-102.9632 83.7632-186.7264 186.722461-186.7264 87.796185 0 159.224123 71.427938 159.224123 159.224123 0 27.1872-22.043569 49.230769-49.230769 49.230769s-49.230769-22.043569-49.230769-49.230769c0-33.504492-27.258092-60.762585-60.762585-60.762585-48.667569 0-88.260923 39.593354-88.260923 88.260924 0.003938 67.611569 55.012431 122.624 122.624 122.624 37.391754 0 63.413169-17.900308 63.649477-18.081477 21.693046-16.395815 52.562708-12.098954 68.958523 9.590153 16.395815 21.693046 12.102892 52.566646-9.590154 68.958524-5.147569 3.887262-52.310646 37.994338-123.017846 37.994338z" fill="#ed6665" p-id="6422" data-spm-anchor-id="a313x.search_index.0.i5.2fa63a81avr6B1" class=""></path><path d="M581.592615 807.959631c-208.096492 0-377.3952-169.298708-377.3952-377.403077 0-208.096492 169.298708-377.399138 377.3952-377.399139s377.3952 169.298708 377.3952 377.399139c0 71.939938-20.3264 141.914585-58.785477 202.350277-14.592 22.9376-45.020554 29.707815-67.96603 15.104-22.9376-14.595938-29.699938-45.024492-15.104-67.966031 28.388431-44.610954 43.393969-96.3072 43.393969-149.492185 0-153.8048-125.128862-278.9376-278.933662-278.9376S302.658954 276.755692 302.658954 430.560492c0 153.808738 125.128862 278.941538 278.933661 278.941539 47.797169 0 94.932677-12.276185 136.298339-35.501293 23.717415-13.315938 53.720615-4.883692 67.028677 18.825847 13.312 23.709538 4.879754 53.720615-18.825846 67.028677-56.060062 31.472246-119.8592 48.104369-184.50117 48.104369z" fill="#f4c2bd" p-id="6423" data-spm-anchor-id="a313x.search_index.0.i1.2fa63a81avr6B1" class=""></path><path d="M102.4 958.995692a49.092923 49.092923 0 0 1-34.812062-14.418707c-19.223631-19.227569-19.223631-50.396554 0-69.624123l247.150277-247.154216c19.227569-19.223631 50.396554-19.223631 69.624123 0 19.223631 19.227569 19.223631 50.396554 0 69.624123l-247.150276 247.154216A49.092923 49.092923 0 0 1 102.4 958.995692z" fill="#3f8f9f" p-id="6424" data-spm-anchor-id="a313x.search_index.0.i8.2fa63a81avr6B1" class="selected"></path></svg>